<svg id="Layer_1" data-name="Layer 1" xmlns="http://www.w3.org/2000/svg" viewBox="0 0 460.6378 273.7219"><defs><style>.cls-1{fill:#040000;}.cls-2{fill:#231815;}</style></defs><path d="M359.4705,238.8063c-.1535-.01-.3106-.01-.4678-.01.0487.0472.0959.0965.145.1432Z"/><g id="_196ee264-7554-4fbf-805f-dc01c4c9b609" data-name="196ee264-7554-4fbf-805f-dc01c4c9b609"><path class="cls-1" d="M228.6554,37.081h0a12.5874,12.5874,0,0,0-3.3124.5392h0a11.5153,11.5153,0,0,0-3.8516,2.234h0a20.3017,20.3017,0,0,0-3.9287,4.4679h0a34.9754,34.9754,0,0,0-3.3894,7.5492h0a67.4384,67.4384,0,0,0-2.3881,11.17h0a112.46,112.46,0,0,0-.9243,15.4837h0a104.1317,104.1317,0,0,0,.9243,14.8673h0a58.2829,58.2829,0,0,0,2.4651,10.63h0a28.2007,28.2007,0,0,0,3.5435,7.1641h0a17.3711,17.3711,0,0,0,4.2368,4.3909h0a13.6061,13.6061,0,0,0,4.3909,2.08h0a15.6984,15.6984,0,0,0,4.16.6163h0a16.5155,16.5155,0,0,0,4.16-.5392h0a20.2664,20.2664,0,0,0,4.16-1.5407h0a28.665,28.665,0,0,0,3.9287-2.388h0a22.94,22.94,0,0,0,3.3894-3.3124h0l2.3881,2.388h0a37.9223,37.9223,0,0,1-3.7747,4.0057h0a30.8555,30.8555,0,0,1-5.1612,3.6976h0a32.9344,32.9344,0,0,1-6.5478,2.6961h0a27.9918,27.9918,0,0,1-8.0114,1.0785h0a30.72,30.72,0,0,1-12.8645-2.6961h0a27.0305,27.0305,0,0,1-10.3224-8.1655h0a40.5081,40.5081,0,0,1-6.8559-14.2511h0a74.7825,74.7825,0,0,1-2.5421-20.7989h0a68.335,68.335,0,0,1,2.6191-19.9515h0A43.5691,43.5691,0,0,1,202.31,44.168h0a30.0547,30.0547,0,0,1,10.63-8.7047h0a29.9725,29.9725,0,0,1,13.0186-2.9273h0a37.3553,37.3553,0,0,1,8.3195.8474h0a24.5222,24.5222,0,0,1,6.5478,2.5421h0a13.4549,13.4549,0,0,1,4.2368,4.0827h0a10.8026,10.8026,0,0,1,1.4637,5.6234h0a10.1938,10.1938,0,0,1-.4622,2.9273h0a8.8439,8.8439,0,0,1-1.4637,2.85h0a6.6855,6.6855,0,0,1-2.388,2.08h0a6.23,6.23,0,0,1-3.3124.8473h0a3.9824,3.9824,0,0,1-2.6191-.77h0a4.43,4.43,0,0,1-1.31-1.9258h0a11.0047,11.0047,0,0,1-.6162-2.7732h0q-.1541-1.5406-.1541-3.1583h0q-.077-1.6177-.2311-3.1584h0a9.8629,9.8629,0,0,0-.77-2.7732h0a4.7565,4.7565,0,0,0-1.6177-2.0028h0A5.1346,5.1346,0,0,0,228.6554,37.081Zm47.1463,13.1726V78.8328a29.2354,29.2354,0,0,1,4.3909-5.0071,28.5146,28.5146,0,0,1,2.2339-1.8488,21.9177,21.9177,0,0,1,2.6192-1.5407,11.7639,11.7639,0,0,1,3.0042-1.1555,10.934,10.934,0,0,1,3.1584-.4622,13.9356,13.9356,0,0,1,6.3167,1.3866,11.5685,11.5685,0,0,1,4.699,4.622,26.7322,26.7322,0,0,1,2.85,8.4736,72.77,72.77,0,0,1,1.0014,13.1726c0,3.5808,0,25.6071-1.0318,31.7692a28.69,28.69,0,0,1-3.62,9.5521,24.5458,24.5458,0,0,1-5.0071,6.4708,27.27,27.27,0,0,1-5.6235,3.9286,26.3813,26.3813,0,0,1-5.4693,2.0029,22.98,22.98,0,0,1-4.5449.5392l-.5393-2.1569a9.5248,9.5248,0,0,0,4.2369-2.1569,11.361,11.361,0,0,0,3.0813-5.1612,41.8012,41.8012,0,0,0,1.9258-9.7062c.4622-4.057.4155-27.8148.4155-34.2342a71.99,71.99,0,0,0-.6162-10.6306,22.5361,22.5361,0,0,0-1.6177-6.0856,5.2138,5.2138,0,0,0-2.157-2.6961,5.121,5.121,0,0,0-2.542-.6933,4.4361,4.4361,0,0,0-2.6962.8474,8.586,8.586,0,0,0-2.0028,1.8487,22.3609,22.3609,0,0,0-1.4637,2.08q-.6162,1.0785-1.0014,1.6177v35.127a7.7536,7.7536,0,0,1-.2311,1.6947,4.1032,4.1032,0,0,1-1.0014,1.8488,6.9536,6.9536,0,0,1-2.4651,1.4636,12.6665,12.6665,0,0,1-4.3908.6163,11.3789,11.3789,0,0,1-4.3909-.6933,5.6569,5.6569,0,0,1-2.4651-1.5406,3.8249,3.8249,0,0,1-1.0784-1.8488,9.6871,9.6871,0,0,1-.1541-1.5407V50.87a4.7469,4.7469,0,0,0-.77-2.6962,2.5567,2.5567,0,0,0-2.388-1.1555,3.7528,3.7528,0,0,0-1.5407.3081,11.2614,11.2614,0,0,0-1.3866.8474l-1.0785-1.2325q1.2325-1.0014,2.6962-2.0029a23.87,23.87,0,0,1,3.2354-1.6947,36.1488,36.1488,0,0,1,3.7746-1.2325,18.7978,18.7978,0,0,1,4.2368-.4622,12.5014,12.5014,0,0,1,5.3153.9244,6.33,6.33,0,0,1,2.7731,2.311,5.8871,5.8871,0,0,1,1.0785,2.85A16.9724,16.9724,0,0,1,275.8017,50.2536Zm64.8617,58.8531V96.2422h0a2.5554,2.5554,0,0,0-.77-2.0028h0a3.417,3.417,0,0,0-2.2339-.6933h0a7.67,7.67,0,0,0-3.4665.8473h0a8.3629,8.3629,0,0,0-2.9272,2.4651h0a13.2891,13.2891,0,0,0-2.0029,4.0057h0a19.9634,19.9634,0,0,0-.6933,5.5464h0a27.6839,27.6839,0,0,0,.3852,5.0841h0a9.6356,9.6356,0,0,0,1.2325,3.1584h0a4.2627,4.2627,0,0,0,1.7718,1.6947h0a4.91,4.91,0,0,0,2.08.4622h0a5.2608,5.2608,0,0,0,2.6192-.6933h0a6.5163,6.5163,0,0,0,2.08-1.8488h0a8.4742,8.4742,0,0,0,1.4636-2.4651h0a8.5035,8.5035,0,0,0,.4622-2.6961Zm-8.32-35.9743h0a11.4767,11.4767,0,0,0-3.3124.4621h0a8.7361,8.7361,0,0,0-2.6191,1.0785h0a5.6075,5.6075,0,0,0-1.7718,1.3866h0a2.39,2.39,0,0,0-.6162,1.4636h0a1.0921,1.0921,0,0,0,.77,1.0785h0q.8474.3852,1.8488.77h0a6.41,6.41,0,0,1,1.8488,1.31h0a3.3764,3.3764,0,0,1,.77,2.465h0a4.5865,4.5865,0,0,1-.4622,2.08h0a6.1675,6.1675,0,0,1-1.1555,1.6177h0a5.4842,5.4842,0,0,1-1.8488,1.0785h0a5.7466,5.7466,0,0,1-2.08.3851h0a6.0557,6.0557,0,0,1-4.776-2.0028h0a7.527,7.527,0,0,1-1.8488-5.3153h0A8.9956,8.9956,0,0,1,318.786,75.52h0a13.0992,13.0992,0,0,1,4.3909-3.7746h0a21.8091,21.8091,0,0,1,6.1626-2.157h0a30.8438,30.8438,0,0,1,6.856-.77h0a32.915,32.915,0,0,1,7.8573.9244h0a20.4375,20.4375,0,0,1,6.5478,2.85h0a14.1557,14.1557,0,0,1,4.622,4.93h0a14.6888,14.6888,0,0,1,1.6947,7.3181h0V114.576h0a7.12,7.12,0,0,0,.077,1.0015h0a2.3832,2.3832,0,0,0,.2311,1.0784h0a2.2744,2.2744,0,0,0,.6163.77h0a2.1905,2.1905,0,0,0,1.2325.3081h0a2.765,2.765,0,0,0,1.7718-.6933h0a9.853,9.853,0,0,0,1.4636-1.4636h0l1.31,1.1555h0a30.3073,30.3073,0,0,1-1.9259,2.388h0a14.0065,14.0065,0,0,1-2.6961,2.465h0a15.6968,15.6968,0,0,1-3.6976,2.0029h0a13.7034,13.7034,0,0,1-4.776.77h0a9.195,9.195,0,0,1-5.8545-2.0028h0a9.2692,9.2692,0,0,1-3.3895-6.0856h0a23.4646,23.4646,0,0,1-3.4664,3.8516h0a23.7311,23.7311,0,0,1-3.7747,2.4651h0a14.9939,14.9939,0,0,1-3.7746,1.31h0a16.4536,16.4536,0,0,1-3.8516.4622h0a15.9614,15.9614,0,0,1-4.93-.77h0a12.2827,12.2827,0,0,1-4.2368-2.5421h0a12.4333,12.4333,0,0,1-3.0043-4.4679h0a16.8239,16.8239,0,0,1-1.1555-6.6248h0a14.3594,14.3594,0,0,1,1.9258-7.8574h0a16.289,16.289,0,0,1,4.93-5.1612h0a33.178,33.178,0,0,1,7.01-3.5435h0q3.9287-1.4637,8.0885-3.0813h0a8.656,8.656,0,0,0,4.3909-3.6206h0a9.6943,9.6943,0,0,0,1.3865-4.93h0a8.5972,8.5972,0,0,0-2.2339-6.24h0A8.28,8.28,0,0,0,332.3438,73.1324ZM386.96,50.2536v32.893h0q1.8489-2.465,4.0057-5.0071h0a38.1365,38.1365,0,0,1,4.4679-4.622h0a27.4383,27.4383,0,0,1,5.3153-3.3894h0a14.5809,14.5809,0,0,1,6.1626-1.31h0a9.4,9.4,0,0,1,5.0072,1.2325h0a10.2807,10.2807,0,0,1,3.2354,2.85h0a10.745,10.745,0,0,1,1.7717,3.3894h0a13.1655,13.1655,0,0,1,.4622,3.0813h0a23.4057,23.4057,0,0,1-.5392,4.8531h0a18.4173,18.4173,0,0,1-2.08,4.93h0a21.51,21.51,0,0,1-3.8517,4.699h0a27.5823,27.5823,0,0,1-6.1626,4.2368h0a200.1036,200.1036,0,0,0,9.6291,18.0257h0a87.5323,87.5323,0,0,0,9.09,12.4023h0a36.6557,36.6557,0,0,0,8.32,7.2411h0a15.32,15.32,0,0,0,7.6262,2.311h0a6.0469,6.0469,0,0,0,1.3095-.1541h0a7.62,7.62,0,0,0,1.1556-.3852h0q.5391-.231,1.1555-.5392h0l1.0014,1.8488h0q-1.3867.77-2.85,1.4636h0a14.5558,14.5558,0,0,1-3.3895,1.2325h0a30.3305,30.3305,0,0,1-4.3909.8474h0a47.993,47.993,0,0,1-5.8545.3081h0A27.3179,27.3179,0,0,1,421.3938,142h0a22.9457,22.9457,0,0,1-6.0856-2.6191h0a33.605,33.605,0,0,1-6.1626-5.0842h0a55.9614,55.9614,0,0,1-6.4708-8.0114h0A122.2025,122.2025,0,0,1,395.973,114.73h0a171.281,171.281,0,0,1-7.2411-15.6377h0a51.872,51.872,0,0,0,7.9344-6.8559h0a35.0454,35.0454,0,0,0,4.3908-5.7775h0a15.9841,15.9841,0,0,0,1.8488-4.6219h0a18.45,18.45,0,0,0,.3852-3.39h0a4.6427,4.6427,0,0,0-.077-.6933h0a2.3963,2.3963,0,0,0-.3852-1.0014h0a2.2207,2.2207,0,0,0-.8474-.8474h0a2.6259,2.6259,0,0,0-1.5406-.3851h0a6.1482,6.1482,0,0,0-3.9287,1.6947h0a22.7559,22.7559,0,0,0-3.8516,4.0827h0a44.7353,44.7353,0,0,0-3.2354,5.2383h0q-1.4637,2.85-2.4651,5.1612h0V118.89h0a6.7886,6.7886,0,0,1-.2311,1.6177h0a3.8539,3.8539,0,0,1-1.0784,1.7717h0a6.9071,6.9071,0,0,1-2.5421,1.4636h0a12.95,12.95,0,0,1-4.4679.6163h0a10.7852,10.7852,0,0,1-4.3139-.6933h0a5.6623,5.6623,0,0,1-2.388-1.5406h0a3.5193,3.5193,0,0,1-.9244-1.8488h0a6.5865,6.5865,0,0,1-.2311-1.5407h0V50.87h0a5.1393,5.1393,0,0,0-.6933-2.6962h0a2.5567,2.5567,0,0,0-2.388-1.1555h0a3.752,3.752,0,0,0-1.5406.3081h0a6.7117,6.7117,0,0,0-1.3866.8474h0l-1.0785-1.2325h0q1.2326-1.0014,2.6962-2.0029h0a23.8913,23.8913,0,0,1,3.2353-1.6947h0a36.1488,36.1488,0,0,1,3.7746-1.2325h0a18.7933,18.7933,0,0,1,4.2368-.4622h0a12.5011,12.5011,0,0,1,5.3153.9244h0a6.9778,6.9778,0,0,1,2.7732,2.311h0a5.8881,5.8881,0,0,1,1.0785,2.85h0a25.2874,25.2874,0,0,1,.154,2.6191Z"/></g><path class="cls-2" d="M256.8241,26.6091a3.2647,3.2647,0,0,1-3.2566,3.2566H252.508v3.8919h-.9634V24.3164h-.5781a.4819.4819,0,1,1,0-.9638h2.601A3.2652,3.2652,0,0,1,256.8241,26.6091Zm-4.3161-2.2927v4.5855h1.0595a2.2928,2.2928,0,1,0,0-4.5855Z"/><path class="cls-2" d="M267.87,32.8905a2.5163,2.5163,0,0,0,1.5795-.5781.4789.4789,0,1,1,.6166.7329,3.372,3.372,0,1,1,0-5.126.4786.4786,0,1,1-.6166.732,2.5207,2.5207,0,0,0-1.5795-.5772,2.3978,2.3978,0,0,0-2.351,1.9267h4.5864a.4815.4815,0,1,1,0,.9629h-4.5864A2.3977,2.3977,0,0,0,267.87,32.8905Z"/><path class="cls-2" d="M282.26,27.11a1.6819,1.6819,0,0,1,1.85,1.8112.4815.4815,0,1,1-.9629,0,.8279.8279,0,0,0-.8868-.8474,3.7917,3.7917,0,0,0-2.0807.9056v4.7779h-.9638V27.2069h.9638v.6166A4.1427,4.1427,0,0,1,282.26,27.11Z"/><path class="cls-2" d="M295.8417,32.14c0-.8483-1.0793-1.2332-1.5992-2.563l-2.8136,4.0468a.542.542,0,0,1-.4045.1924.4771.4771,0,0,1-.4815-.4815.4872.4872,0,0,1,.0967-.3087l4.2-5.9735a.4285.4285,0,0,1,.3857-.1924.4766.4766,0,0,1,.4815.4815.498.498,0,0,1-.077.289,2.6633,2.6633,0,0,0-.54,1.1947c0,.9826,1.7155,1.9079,1.7155,3.3147a1.7191,1.7191,0,0,1-1.7155,1.7147c-.7124,0-1.4256-.52-1.4256-.9441a.4765.4765,0,0,1,.4814-.4815c.4439,0,.3857.4618.9442.4618A.7645.7645,0,0,0,295.8417,32.14Z"/><path class="cls-2" d="M308.0384,32.7947v.9629h-2.8905v-.9629h.9638v-5.492a.4815.4815,0,1,1,.9629,0v5.492Zm-1.4453-7.9969a.7705.7705,0,1,1,.7706-.77A.7723.7723,0,0,1,306.5931,24.7978Z"/><path class="cls-2" d="M316.9888,27.6884a.4766.4766,0,0,1,.4815-.4815h3.8543v6.84l-1.06-.7124a4.3957,4.3957,0,0,1-1.5411.4815c-1.31,0-2.3509-.5781-2.3509-1.6958,0-1.2332,1.2914-1.8883,2.4861-1.8883a5.4705,5.4705,0,0,1,1.5025.2309V28.17h-2.89A.477.477,0,0,1,316.9888,27.6884Zm3.372,3.7765a5.0431,5.0431,0,0,0-1.5025-.2694c-.6936,0-1.5223.2309-1.5223.9245,0,.54.6354.732,1.3871.732a4.7675,4.7675,0,0,0,1.6377-.5969Z"/><path class="cls-2" d="M331.2833,27.785a2.3284,2.3284,0,0,1,1.6574-.6747,2.43,2.43,0,0,1,2.4278,2.4278v3.8347a.4815.4815,0,1,1-.9629,0V29.5381a1.4645,1.4645,0,0,0-2.929,0v4.2195h-.9638v-6.744Z"/><path class="cls-2" d="M365.0385,31.9079c0,.1548-.0582.2317-.1924.3857a5.2994,5.2994,0,1,1-3.7577-9.0368,5.4621,5.4621,0,0,1,3.7192,1.5025.5712.5712,0,0,1,.1924.4045.4766.4766,0,0,1-.809.3473,4.34,4.34,0,1,0-3.1026,7.3794,4.1967,4.1967,0,0,0,2.9675-1.175c.2121-.2121.289-.2891.5011-.2891A.4771.4771,0,0,1,365.0385,31.9079Z"/><path class="cls-2" d="M375.98,32.8905a1.4764,1.4764,0,0,0,1.4649-1.4641V27.5917a.4815.4815,0,0,1,.963,0v3.8347a2.4275,2.4275,0,1,1-4.8549,0V27.5917a.4815.4815,0,0,1,.9629,0v3.8347A1.4763,1.4763,0,0,0,375.98,32.8905Z"/><path class="cls-2" d="M389.8672,32.7947v.9629h-2.8905v-.9629h.9638v-5.492a.4815.4815,0,1,1,.9629,0v5.492Zm-1.4453-7.9969a.7705.7705,0,1,1,.7706-.77A.7723.7723,0,0,1,388.4219,24.7978Z"/><path class="cls-2" d="M403.3108,32.14c0-.8483-1.0793-1.2332-1.5992-2.563l-2.8136,4.0468a.542.542,0,0,1-.4045.1924.4771.4771,0,0,1-.4815-.4815.4872.4872,0,0,1,.0967-.3087l4.2007-5.9735a.4262.4262,0,0,1,.3848-.1924.4766.4766,0,0,1,.4815.4815.4987.4987,0,0,1-.077.289,2.6633,2.6633,0,0,0-.54,1.1947c0,.9826,1.7155,1.9079,1.7155,3.3147a1.7191,1.7191,0,0,1-1.7155,1.7147c-.7124,0-1.4256-.52-1.4256-.9441a.4765.4765,0,0,1,.4814-.4815c.4439,0,.3857.4618.9442.4618A.7645.7645,0,0,0,403.3108,32.14Z"/><path class="cls-2" d="M415.5075,32.7947v.9629h-2.89v-.9629h.9638v-5.492a.4815.4815,0,1,1,.9629,0v5.492Zm-1.4453-7.9969a.7705.7705,0,1,1,.77-.77A.7722.7722,0,0,1,414.0622,24.7978Z"/><path class="cls-2" d="M425.0317,27.785a2.3286,2.3286,0,0,1,1.6574-.6747,2.43,2.43,0,0,1,2.4279,2.4278v3.8347a.4819.4819,0,0,1-.9638,0V29.5381a1.4641,1.4641,0,0,0-2.9282,0v4.2195h-.9638v-6.744Z"/><path class="cls-2" d="M441.1751,32.8905a2.5163,2.5163,0,0,0,1.58-.5781.4789.4789,0,1,1,.6166.7329,3.372,3.372,0,1,1,0-5.126.4786.4786,0,1,1-.6166.732,2.5208,2.5208,0,0,0-1.58-.5772,2.3977,2.3977,0,0,0-2.3509,1.9267H443.41a.4815.4815,0,1,1,0,.9629h-4.5856A2.3977,2.3977,0,0,0,441.1751,32.8905Z"/><path d="M452.3837.01C452.23,0,452.0731,0,451.9159,0c.0487.0473.0959.0966.145.1433Z"/><path d="M460.4447,211.2388a32.4073,32.4073,0,0,0-6.7916-16.2019,15.9625,15.9625,0,0,0-6.0984-4.8668c-.305-.138-.4791-.6017-.7119-.9164.38-.0578.8824-.3051,1.1272-.1553a22.5791,22.5791,0,0,1,4.419,3.04,52.1279,52.1279,0,0,1,4.1183,5.4c.2927.3812.6059.7555.9191,1.13.1038-.0451.2186-.0986.3238-.1532a7.568,7.568,0,0,0-.3416-1.2008,31.5326,31.5326,0,0,0-10.8156-12.49q-3.7872-2.4816-7.5732-4.9727c-.1259-.0851-.3147-.1393-.3861-.2662-.2666-.5052-.5017-1.0259-.7562-1.5491a4.3509,4.3509,0,0,1,1.689-.0324c2.6355,1.1106,5.3037,2.1961,7.3814,4.2716.0694.0679.2176.058.6554.1547a10.0932,10.0932,0,0,0-.7295-1.379c-3.383-4.3628-8.084-6.45-13.2942-7.6449-2.0928-.4711-4.183-.9616-6.4069-1.4793,1.1353-1.408,2.7637-.8314,4.1585-1.01.03-.1528.0584-.2959.0884-.4487-1.4161-.627-2.8418-1.2553-4.2483-1.881.98-.8994,3.0039-1.0937,5.7324-.02a41.8471,41.8471,0,0,1,5.4215,3.1618,7.5524,7.5524,0,0,0-2.5765-3.718,11.5989,11.5989,0,0,0-11.2256-1.9271,5.38,5.38,0,0,1-3.655.0874,11.6072,11.6072,0,0,0-6.8413-.41,9.9713,9.9713,0,0,1-1.7933.1558c.61-1.2126,2.21-1.8347,4.5774-1.7388,1.6667.0626,3.3251.2611,4.9817.4007l.2113-.2661a5.1674,5.1674,0,0,0-1.2068-.9521c-4.8411-1.8414-9.7224-3.2279-14.8646-1.1422a1.5947,1.5947,0,0,1-.446.0393c-.0668-.0871-.1241-.1731-.19-.27.6607-.4812,1.3119-.9636,2.2014-1.62-4.3627-.564-6.9714,2.5894-10.3517,3.79a13.2653,13.2653,0,0,1,5-3.9849,55.4808,55.4808,0,0,1,6.5413-1.9995c-3.783-1.5457-7.2614-1.0139-10.793-.0779.5749-1.1682,1.721-1.468,2.756-1.89a29.0872,29.0872,0,0,0,3.3017-1.3483,4.2192,4.2192,0,0,0-.999-.2979,13.7215,13.7215,0,0,0-9.5645,2.9437c-2.3326,1.799-4.5218,3.7736-6.8545,5.5725a15.5639,15.5639,0,0,1-3.1728,1.7081c-.6873.3112-1.0808-.1226-.9884-.8254.6983-5.0111,2.1624-9.5883,7-12.2626a26.7443,26.7443,0,0,0,2.8981-2.0771,2.8686,2.8686,0,0,0-.9273-.0241,15.5834,15.5834,0,0,0-9.4345,5.7523,39.2682,39.2682,0,0,0-6.3707,12.3943c-.1155.357-.2682.6992-.51,1.3433a10.3156,10.3156,0,0,1-1.1771-5.1989,15.9174,15.9174,0,0,1,2.9113-9.1765,3.3054,3.3054,0,0,0,.313-1.1145,4.9008,4.9008,0,0,0-1.1963.2344,9.47,9.47,0,0,1-1.6843.8167c.9672-2.4389,3.0985-3.8236,4.9732-5.4184q-.12-.2067-.2394-.4135a10.84,10.84,0,0,0-1.5077.5167,27.8877,27.8877,0,0,0-7.773,6.2254c-3.8415,4.1862-6.48,9.1282-8.7917,14.27-.7441,1.6357-1.2756,3.3679-1.9091,5.0574a3.2029,3.2029,0,0,1-.7142,1.1108c-.5733-4.13,1.1436-7.95,1.5017-11.9378l-.2623-.24a9.6234,9.6234,0,0,0-1.8279,1.2385c-1.3279,1.3827-2.5072,2.9024-3.835,4.285a29.3943,29.3943,0,0,1-2.8462,2.4269,3.0542,3.0542,0,0,1-.9164.34l-.2873-.2729c.318-.5557.6455-1.11,1.1241-1.9188-.7256.0809-1.2909.1339-2.1756.233A15.9393,15.9393,0,0,1,355,165.7333c-.02-.15-.0307-.288-.05-.4376a7.44,7.44,0,0,0-1.9015-.4362,21.4486,21.4486,0,0,0-8.2015,1.889c-4.44,2.0311-8.1965,5.0531-11.9309,8.127a19.2,19.2,0,0,1-2.5118,1.7461c2.0057-3.4091,4.6864-6.5139,4.3579-10.8667a35.8307,35.8307,0,0,1-11.2827,12.2085c1.3627-2.3183,3.7848-3.9782,4.0715-6.9767-4.4538,3.851-8.8246,7.7423-12.88,11.9886-.0925-.0416-.1945-.0843-.2858-.1355-.0233-.4928-.0454-.9952-.0809-1.8422-.8479.9364-1.5115,1.6621-2.1654,2.3891-.1259-.0852-.2531-.1607-.379-.2458.1684-.5361.3356-1.0626.4945-1.6-.0753-.0981-.1505-.1961-.2354-.2955-2.6884.93-5.3768,1.859-8.2608,2.8606.1412-.7748.31-1.5361.422-2.3147a10.5146,10.5146,0,0,0,.0152-1.2321,4.5506,4.5506,0,0,0-1.3147.0916c-2.0046.794-3.9878,1.65-5.977,2.4752a5.0259,5.0259,0,0,1-.8044.1587c.4109-1.3368.7848-2.5412,1.1491-3.747-.108-.073-.2159-.1459-.3225-.2285a9.49,9.49,0,0,0-1.2106.9377c-.7569.8407-1.49,1.7237-2.1861,2.6214a9.6932,9.6932,0,0,1-4.5173,3.0689,2.2276,2.2276,0,0,1-1.6877-.3493c-.1882-.1325.076-.95.1611-1.448a6.49,6.49,0,0,1,.3372-.9253,4.9664,4.9664,0,0,0-1.507.2132c-2.03,1.0649-4.2311.893-6.3426.7132-3.0011-.2674-5.9465-.5863-8.7914.7144-.1872.0831-.43-.0076-.9574-.0182a4.7013,4.7013,0,0,1,3.1418-2.1431c2.318-.273,4.6692-.2772,7.0151-.39.4434-.02.8829-.0111,1.3334-.0106.0345-.1131.0773-.2151.1117-.3282a5.3018,5.3018,0,0,0-.8224-.5978,17.12,17.12,0,0,0-10.2607-.9971,21.3089,21.3089,0,0,1-3.9438.4215l1.4016-1.05c-.0426-.1231-.0865-.2366-.1291-.36-2.777.1147-5.3676,1.1941-8.0444,1.8117-.0669-.0872-.1325-.184-.1994-.2711.34-.2785.6638-.5787,1.0195-.8258.398-.2708.8378-.4872,1.2513-.7267l-.0623-.4195a6.0072,6.0072,0,0,0-1.1969-.06c-1.3215.2179-2.6185.5468-3.9311.6974-.5473.0652-1.1467-.3663-1.6844-.3a23.206,23.206,0,0,0-2.2506.654,20.6772,20.6772,0,0,1-3.1984.6372,19.3872,19.3872,0,0,0-9.1462,2.5187,4.5563,4.5563,0,0,1,3.0422-2.2051c1.1287-.39,2.2858-.6984,3.4191-1.0488-.0145-.188-.04-.3677-.0555-.546-.9362.0433-1.864.0976-2.7905.1422-.0343-.1122-.0672-.2341-.1014-.3463q2.08-.96,4.18-1.9184a2.9,2.9,0,0,0,.0476-.2875,7.1152,7.1152,0,0,0-1.5571-.2245c-2.1848.1534-4.3688.3755-6.549.5686a6.7082,6.7082,0,0,1-1.5265.0637c-2.86-.4448-5.7153-.9282-8.5814-1.403a1.9754,1.9754,0,0,1-.7692-.2579c-.2062-.1447-.4551-.4125-.4381-.6159.0119-.165.3445-.3857.569-.4541.4176-.1214.85-.1331,1.2734-.2242.5946-.1275,1.1918-.2743,1.7781-.4126.0093-.1457.0271-.2805.0364-.4262-.6-.1279-1.19-.2642-1.79-.3921-1.4591-.3-2.9221-.57-4.3652-.917-.2934-.0778-.5078-.4585-.7508-.6962l-2.3544-.79c.8154-.7644,1.6406-1.5276,2.4825-2.269a4.7131,4.7131,0,0,1,4.44-.9145,2.501,2.501,0,0,0,.4634.0511c.0687-.0008.1366-.07.3565-.1784a4.5239,4.5239,0,0,0-2.9259-2.4025,23.86,23.86,0,0,0-3.972-1.0023c-1.2864-.1987-2.6211-.1783-4.0708-.2515l-11.2569-4.09c-.5963-1.1934-.3378-2.6056-.9843-3.79-.3164-.5746.1845-.8973.8875-.6848.4217.1259.8083.3227,1.2125.488.1143-.0787.22-.15.3251-.2282-3.55-6.4861-7.1348-12.9485-12.9692-18.1829l.3251-.2913c1.3268.9525,2.6448,1.8971,3.9716,2.85.079-.0709.1582-.1339.2285-.2047-.6063-.7556-1.1775-1.5428-1.8453-2.2591-1.09-1.1728-2.2582-2.2827-3.3653-3.4477a4.4111,4.4111,0,0,1-.5361-.9367l.3955-.26q2.1615,1.5112,4.3231,3.0383c.07-.0708.1494-.1416.22-.2125a31.4108,31.4108,0,0,0-6.88-7.2889c-.1846-1.1177-.36-2.2433-.5273-3.3689a1.4065,1.4065,0,0,1,.1494-.9918,1.2793,1.2793,0,0,0-.0352-1.6609c-1.1422-1.8261-2.17-3.7153-3.295-5.5572-.6151-1-1.3444-1.9442-1.9858-2.9281a3.1251,3.1251,0,0,1-.2812-.858c.2987-.0394.6063-.0787.9051-.11.1669-.0158.3427-.0236.6765-.0472a9.1562,9.1562,0,0,0-1.74-3.2588,4.1224,4.1224,0,0,1-.36-1.1571c-.0791-.22-.167-.52-.3515-.5982-.7908-.3542-.782-.8108-.413-1.22-1.2916-1.1179-2.5306-2.1962-3.84-3.3376.3075-.1967.413-.26.5184-.3306.29-.1968.5712-.4014.8524-.606-.2549-.1968-.4921-.4172-.7645-.59a20.7725,20.7725,0,0,1-5.6235-4.7543,9.1913,9.1913,0,0,1-.6854-1.2043c1.2389.0472,2.3022.0945,3.3653.1416.044-.1023.0879-.1967.1319-.2911-2.4428-3.3533-5.1755-6.4389-9.4546-8.32.5887-.3621,1.0632-.6534,1.5464-.9446-.0263-.0866-.0439-.1732-.07-.26-.2811-.0394-.5623-.11-.8434-.126-3.7081-.1732-6.2123-2.1174-8.3563-4.5575-.4393-.5038-.4569-.9682.4921-.9918a1.1146,1.1146,0,0,0,.7293-.37c-.6415-.307-1.2653-.6455-1.9243-.9052-.6415-.26-1.3532-.3935-1.977-.6848-.3427-.1574-.5536-.5195-.8172-.795a3.1012,3.1012,0,0,1,1.0192-.5431,17.2857,17.2857,0,0,1,2.2144-.0158,2.8557,2.8557,0,0,0,.9225-.0393,36.1743,36.1743,0,0,0-6.9063-4.526c-2.5043-1.1021-5.0085-2.22-7.5128-3.33a2.224,2.224,0,0,0,.044-.2361h2.97l.0791-.26q-3.3083-1.653-6.6165-3.2981v-.37a19.198,19.198,0,0,1,2.03-.4408c.6766-.0708,1.38-.0158,2.3285-.0158a3.4041,3.4041,0,0,0-2.7151-1.2436,10.7448,10.7448,0,0,0-3.1369.362c-.94.2676-1.7837.8266-2.7766,1.1571.659-1.6136,3.0929-1.7868,3.62-3.55-.1142-.063-.2724-.2046-.3954-.1889a9.8826,9.8826,0,0,1-6.3089-1.5979,6.9772,6.9772,0,0,0-4.0507-.85c-1.0368.063-2.0912.0079-3.1281.0079-.0176-.1338-.0351-.2755-.0527-.4093,1.1335-.22,2.2758-.4329,3.4181-.6533-.0176-.1339-.0264-.2755-.0352-.4094-1.0895-.2125-2.1615-.488-3.26-.606a31.3941,31.3941,0,0,0-9.516.5431,4.9559,4.9559,0,0,1-1.4762.118c-.3163-.0315-.5975-.3148-.8963-.488a4.0956,4.0956,0,0,1,.7469-.7163,6.0184,6.0184,0,0,1,1.239-.3148,7.1759,7.1759,0,0,0-4.71-1.2437c-1.59-.0079-3.19.1338-5.0085.22.51-.3385.8963-.59,1.5553-1.0312a6.3869,6.3869,0,0,0-1.2829-.0787c-.8962.1811-1.7924.3936-2.6623.6533a15.5417,15.5417,0,0,1-6.5374.3936,8.8865,8.8865,0,0,1-1.731-.5746c.2373-.4487.4745-.9052.7821-1.48-.29.0314-.5975.0472-.8963.1023-.87.1732-1.7222.3936-2.5921.5116-.29.0394-.6151-.1731-.9226-.26.22-.1968.4393-.4015.6678-.5825a3.2785,3.2785,0,0,1,.3954-.26c-.0088-.0865-.0176-.181-.0351-.2755-.4394,0-.8963-.0236-1.3357.0079-.5975.0315-1.1862.0788-1.7749.126.0264-.063.0527-.126.0791-.1968-.2461.0866-.492.1653-.7293.244-.6063.0472-1.2126.0787-1.8189.0866-.0439,0-.0878-.0079-.1405-.0079.4041-.7006.7732-1.3381,1.1862-2.0544-.8172-.0473-1.5026-.0945-2.3285-.1417.2811-.488.5008-.8816.8084-1.409h-3.33c.9578-1.0075,1.7135-1.8026,2.5921-2.7314h-3.128c-.044-.0708-.0879-.15-.1318-.22.6765-.4329,1.3531-.8579,2.1879-1.3853-.8435-.4723-1.6343-.9052-2.5482-1.4011.8435-.4251,1.5641-.7793,2.4691-1.2358-.9138-.2834-1.6695-.52-2.4164-.7556.0176-.0552.0264-.11.044-.1654H91.277c-1.2566-.8974-2.2231-1.59-3.3918-2.4244.7821-.0708,1.362-.118,2.17-.1889-.7645-.795-1.45-1.5034-2.267-2.3535.7733-.0551,1.3708-.1024,2.2758-.1732-1.4147-1.2831-2.7063-2.448-4.1474-3.7546.8963-.0394,1.5465-.063,2.557-.11-1.731-1.3223-3.2424-2.4794-4.85-3.7153.6414-.3856,1.2038-.732,1.8891-1.1492-1.7046-.9681-3.33-1.9048-4.9645-2.8337.0264-.0865.0439-.1731.07-.26h2.6887c-.7732-.7871-1.3-1.44-1.9594-1.9836a3.5039,3.5039,0,0,1-1.3092-2.9754c0-3.8176-.0615-7.6352-.3339-11.445a15.7482,15.7482,0,0,0-1.3356-4.652C77.3939.1177,75.742-.4806,72.9829.3617A16.6249,16.6249,0,0,0,65.7866,5.053a6.8326,6.8326,0,0,0-1.0281,1.2043c-1.1423,1.9364-3.04,2.7628-5.483,3.243-7.97,1.5822-15.9919,2.7235-24.2163,2.3456a47.188,47.188,0,0,1-6.4143-.7c-2.4428-.4486-4.0419-2.0308-5.7026-3.5027C21.5452,6.4148,17.8547,3.7621,17.53,3.55c-3.541-2.2512-5.9926-1.0469-7.0558,2.55-1.09,3.7074-.3251,7.36.6766,10.9884a16.2045,16.2045,0,0,0,.6151,1.8734,4.8037,4.8037,0,0,1,.1757,3.2509c-.58,2.1331-4.0419,7.6116-6.4231,8.1783.9226.3542,1.59.6061,2.5657.9683C6.4144,31.8472,5,32.2565,3.33,32.7445c.9314.3621,1.6607.6376,2.5394.976-.8787.3621-1.59.6534-2.4691,1.0154.5711.2047,1.0281.3622,1.6871.5983-1.09.4566-1.9858.8422-3.1106,1.3224.87.3227,1.5553.59,2.5658.9682-1.2214.2755-2.1352.488-3.3653.7635.7732.2912,1.3179.4959,2.1615.8107-1.1863.22-2.0649.3936-3.295.63,1.0719.3541,1.8188.5982,2.8205.9288C1.8452,41.0882,1.09,41.34,0,41.7021c1.2741.2991,2.2407.5353,3.3566.8029-.536.7557-1.0281,1.4563-1.5993,2.267.6678.0393,1.1863.0708,2.1616.1338-.72.3621-1.16.5824-1.8365.9288.9666.2519,1.5026.3857,2.2846.5825-.8.4172-1.4673.7635-2.2757,1.1807.5887.1417,1.0455.26,1.7485.425-.7556.4487-1.3883.8187-2.1967,1.2989.7909.15,1.4059.2676,2.2582.4329-.905.4092-1.5992.7241-2.513,1.1413.6151.1417,1.0105.2362,1.7485.4093-1.0631.4093-1.0983,2.3772-2.2757,2.8337,1.23.1338,2.4076-.8265,3.5059-.7084A12.1459,12.1459,0,0,1,.9139,58.9641c.6678.15,2.7765-.984,4.4021-1.6923a13.6481,13.6481,0,0,1-3.462,9.3826s3.708.0551,5.29-1.5822A15.4891,15.4891,0,0,1,4.9118,70.228c-.5271.3936,2.5569.3778,3.4093-1,0,0-.8524,2.5111-1.8452,6.1083,2.5657-1.1493,2.61-2.6684,3.7607-3.3847a5.8975,5.8975,0,0,1-1.9155,5.0455c.6326-.0551,4.8678-2.1646,5.6235-2.22l-5.5884,5.077c2.5833.3542,7.5742-1.81,5.9663-.8973-.1319.0708-3.3741,3.4555-4.0244,5.7146.0263.0945,3.9013-1.85,6.1243-.5982.94-.1338-6.7569,2.5661-5.5268,2.3929,0,0,4.8415-.1417,6.4407,1.0312-.7029,1.2594-3.62.6769-5.6411.5431.782,1.4562,2.3812,1.2673,3.8135,1.8812a6.8224,6.8224,0,0,1-4.7625-.5273,3.374,3.374,0,0,0,2.4164,2.4558c1.0808.4487,2.2318.7714,3.3477,1.1492-.0175.11-.0351.2283-.0527.3385-.8435-.063-1.6871-.1338-2.5394-.1732-.5184-.0314-1.0368-.0078-1.564-.0078.369.3306.6766.8344,1.1159.9682a30.3612,30.3612,0,0,0,3.295.6769,11.1511,11.1511,0,0,0,1.1511.0629,9.5142,9.5142,0,0,1-4.7009,2.0387c-.2373.0551-.51.0158-.7381.0788-.3427.0944-.6678.2361-1.0017.3542a3.1688,3.1688,0,0,0,.949.63,14.5828,14.5828,0,0,0,2.0122.1652c-1.0193,1.1414-2.4955,1.1021-3.8838,1.5271.8787,1.0784,2.1352.6533,3.4445.9446a30.68,30.68,0,0,1-3.0051,2.22A29.6838,29.6838,0,0,1,7.68,104.2718c.5711.6769,1.1159.7714,2.7678.3148.9578-.2676,1.8628-.6769,2.8557-.913a19.6548,19.6548,0,0,1-6.7922,4.4,10.1837,10.1837,0,0,0,4.824-.0629c1.5552-.2991,3.0138-.9761,4.71-1.33a5.6693,5.6693,0,0,1-1.0369,1.0469,12.08,12.08,0,0,1-7.1524,2.023,1.6838,1.6838,0,0,0-.6238.2125c.1493.181.2635.488.4568.5273.9929.2047,1.9946.3385,3.1457.5274A6.3065,6.3065,0,0,1,7.46,112.5368c-1.2478.2676-2.4955.5352-3.752.8028,0,.0944,0,.1967-.0087.2912.8962.1417,1.7925.2756,2.882.4487-1.2477,1.0705-2.4427.4329-3.6114.1417-.0527.1023-.1142.2047-.1669.307.4042.3384.7381.8186,1.2214.9839,1.8364.6533,3.7255,1.2122,5.5883,1.7947.2549.0787.5273.118,1.0456.2282-1.9067,1.1493-3.6552,2.023-6.0013,1.8105.7733,1.4719,2.1176,1.4168,3.62,1.464a10.1437,10.1437,0,0,1-4.7185,1.716,6.1047,6.1047,0,0,0-.9139.2913,4.0732,4.0732,0,0,0,.8172.5981,14.0913,14.0913,0,0,0,1.5992.4881c-.7205,1.039-1.9858,1.0468-3.1193,1.527a2.9926,2.9926,0,0,0,2.3988.8895,16.0261,16.0261,0,0,0,7.5127-1.4247,3.566,3.566,0,0,1,.5184-.0866,4.5848,4.5848,0,0,1-2.9348,2.9046c-.2109.1023-.492.11-.6942.2282-.1933.1023-.4393.2991-.4393.4566s.246.362.4393.4565c.3691.181.7733.2912,1.2654.4723-.993,1.771-2.8734,2.6133-4.5252,3.7389a8.2482,8.2482,0,0,0,6.2737-2.07,2.6372,2.6372,0,0,0,.2548.1574c-.3427.5825-.6854,1.165-1.1423,1.9364,2.0825-.2362,3.1545-1.5664,4.578-2.4165-.8787,2.6527-3.2424,4.2112-5.193,6.1,2.61-.3464,3.8046-2.5109,5.7816-3.6681l.2373.1418c-.7293,1-1.4674,1.9914-2.2055,2.9832.1054.0944.2109.181.3163.2676.703-.4959,1.4147-.9839,2.1264-1.48.07.0393.1406.0787.2109.11-.5623.8973-1.1247,1.7868-1.687,2.6762.0966.0709.2021.1339.3075.2047a7.6945,7.6945,0,0,0,3.2072-3.3295,4.3263,4.3263,0,0,1-.3954,4.1875c-.8524,1.1965-1.9331,2.259-2.8381,3.4555,2.6184-.6139,3.8925-2.6605,5.6059-4.2663.0175,2.7865-2.3637,4.3844-4.0858,6.305.0966.0945.1933.1889.29.2913.7557-.2519,1.5114-.4959,2.3637-.7793-.0879,1.7789-1.52,2.7314-2.5219,3.9908a18.3309,18.3309,0,0,0,8.945-2.8416c.0791.0709.1582.15.2372.2283-.7556.6376-1.4585,1.3381-2.2669,1.9048-.8435.6062-1.7926,1.0863-2.6976,1.6137.0087.11.0087.22.0176.3306a6.9678,6.9678,0,0,0,1.2829-.0157c2.0121-.3621,3.4355-1.5822,4.8942-2.755.6151-.4959,1.2038-1.0233,1.977-1.6845a9.51,9.51,0,0,1-6.1331,6.2971c.0087.1024.0263.2047.0439.307a25.5046,25.5046,0,0,0,3.0051-.0236c.9929-.11,1.9506-.4251,2.9611-.5747a6.9179,6.9179,0,0,1-4.0771,1.897c.413.9288,1.2214.7715,1.9068.7242a10.122,10.122,0,0,0,2.1879-.362,15.1357,15.1357,0,0,0,1.9506-.8659l.2373.26c-1.1687.8895-2.3286,1.7869-3.6641,2.81.782.1417,1.3707.244,2.3285.4093-.9754.8817-1.8277,1.6373-2.6712,2.4008.0615.0787.1318.1653.1933.2519a16.39,16.39,0,0,0,8.6725-3.4713c-1.3092,2.078-3.5322,3.2509-5.7465,4.4316.0527.1338.1142.2755.1758.4093a14.3314,14.3314,0,0,0,2.267-.2913,14.279,14.279,0,0,0,5.3335-2.8966,3.9567,3.9567,0,0,1,.782-.4172,3.4978,3.4978,0,0,1,.4218.8187,5.33,5.33,0,0,1-.5975,4.4315,13.4149,13.4149,0,0,1-1.6695,1.5585,2.9406,2.9406,0,0,0-.3778.6062c.2109.0865.4393.26.6414.244a3.64,3.64,0,0,0,1.5289-.2991c1.5992-1.0391,3.2862-2.0308,4.13-3.7547.0351-.0787.1406-.1259.4393-.37.167,2.0938-1.6255,2.8337-2.7679,3.9672,1.9683.3305,3.2776-.7793,4.9119-1.8656-.167.6691-.2812,1.0233-.3427,1.3854a5.0775,5.0775,0,0,0,.413,3.6366c.1406.2361.4833.3778.7292.5588a2.9841,2.9841,0,0,0,.1934-.7556c.0088-.6376-.1055-1.2752-.0527-1.9049a3.8894,3.8894,0,0,1,.4657-1.0626c.123.0079.246.0236.369.0314a7.8508,7.8508,0,0,1,.22,1c.3163,2.6448.5887,5.3053.949,7.9422a10.2014,10.2014,0,0,1-.2548,4.9039,15.9663,15.9663,0,0,0-.4921,2.9124,12.2642,12.2642,0,0,1-.2548,1.7c-.2109.6612-.8084,1.2987.2109,1.8655.1493.0787.1405.4958.0878.732-.6151,2.8967-1.2213,5.7933-1.88,8.69a5.8837,5.8837,0,0,1-2.2318,3.29,4.5614,4.5614,0,0,0-.4656.5195,2.0369,2.0369,0,0,0,.4393.22c1.52.299,1.6782.3778.8874,1.5428-1.2917,1.8812-2.82,3.6366-4.2528,5.4391-.1845.2282-.492.3778-.6678.6061a2.4923,2.4923,0,0,0-.2724.6611,2.5761,2.5761,0,0,0,.87.063,17.1019,17.1019,0,0,0,1.59-.6533c.0615.0709.1231.1495.1934.22-.7645.7321-1.529,1.472-2.2934,2.2119,1.4937.7713,1.5553.9209.2285,2.0308a18.1334,18.1334,0,0,1-2.8294,1.8183c-1.3619.7556-2.8118,1.37-4.1562,2.141a5.6832,5.6832,0,0,0-2.7677,6.9032,8.9639,8.9639,0,0,1,.22,1.4641c1.6958-.1653,1.52-.0787,2.3549,1.2752a13.8244,13.8244,0,0,0,2.8293,2.873,13.5481,13.5481,0,0,0,2.144,1.2594c.1493-.2519.3427-.5825.58-.976.5624.63,1.0368,1.1964,1.5465,1.7474.43.4487.8435.52,1.2828-.0472.5712-.7321,1.2214-1.3932,2.267-.48a.6949.6949,0,0,0,.51.0944c2.6448-.5116,5.3072-.9917,7.4423-2.684,1.1863-.9446,1.2565-.8974,2.2055.2361.0967.1181.22.2361.51.5353a21.1047,21.1047,0,0,0,2.2142-2.2985c1.3268-1.8891,2.46-2.385,4.8767-1.8419.6151-4.1561,3.0841-7.9108,2.9874-12.3975,1.0369.5117.9315,1.2437.9842,1.8813a12.7363,12.7363,0,0,0,.1669,1.9758c1.1159-1.11.5888-2.5976,1.0017-3.8492.1142-.0236.2285-.0393.3427-.0629.2548.4723.5009.9367.8348,1.5585.4129-.9839.7644-1.8261,1.2038-2.8573.492.8894.8523,1.5507,1.2389,2.2355.6062-2.1883,1.0808-4.2191,1.74-6.1949.6765-1.9914,1.5464-3.9356,2.3284-5.8956.1319.0079.2637.0157.3955.0314a10.5337,10.5337,0,0,1-.1582,2.11c-.36,1.3618-.8874,2.6842-1.3,4.038a5.1336,5.1336,0,0,0-.0879,1.11c.1318.0394.2636.0787.3954.1259,1.0544-1.3774,2.1879-2.7,3.1281-4.1246.949-1.4247,1.6958-2.9439,2.5569-4.4552.6854,1.228.2461,2.6448.5185,4.0381,2.1263-2.4087,2.9787-5.3526,4.3494-8.06.1318.0315.2548.0708.3866.1023-.3163.9524-.5711,1.9206-.9665,2.8494-.413.9682-.9578,1.8892-1.4938,2.936,1.5553.2676,2.2758-.9917,3.3742-1.4483.0966.0552.1932.1023.29.1575-.58,1.0154-1.151,2.0386-1.731,3.0619l.1582.2125c.4393-.2361.8611-.4958,1.3268-.7005.4481-.1889.94-.3149,1.4059-.4723.1405.3935.4481.8108.3953,1.1886a7.6481,7.6481,0,0,1-.6941,2.6684c-.8962,1.5743-2.0121,3.0541-3.04,4.5733-.0791.1259-.1143.2676,0,.59l2.5833-1.2515c.0615.0472.123.0944.1758.1338l-.65,1.1649c.58-.1967.9051-.3148,1.2214-.425.8962-.307,1.4937.0236,1.52.8737a3.6422,3.6422,0,0,1-.9226,2.8573c-.7557.7636-1.4234,1.59-2.17,2.3536a4.09,4.09,0,0,0-1.2477,2.1253,7.56,7.56,0,0,1-1.3883,2.33c-.4393.6533-.94,1.2751-1.3707,1.9364a5.5791,5.5791,0,0,0-.4482.976c.07.0472.1406.0944.2109.1338.29-.1732.5712-.3542,1.0105-.63.3866,1.4642.7469,2.881,1.1247,4.3136,1.5729-.425,1.9243.795,2.7591,1.2516.9753.5431,1.9155,1.1413,2.8732,1.7159.0615.0315.1494.0709.1933.0551,1.74-.5353,3.2511.7006,4.9734.48,1.6431-.2125,3.33-.2046,4.982-.3464a2.47,2.47,0,0,0,1.2478-.488,1.2635,1.2635,0,0,1,1.8891.0944c1.0545.9525,1.1248.9367,2.0473-.1495a9.9838,9.9838,0,0,1,3.84-2.9124c.6326-.26,1.0456-.2677.9841.5116a2.4971,2.4971,0,0,0,.1054.551c.58-.1889,1.09-.3936,1.6168-.5273,1.09-.2756,1.5465.118,1.2741,1.0862-.1845.6376.1757.795.7644.8265a6.4663,6.4663,0,0,0,4.4109-1.4641c-.0614.6927-.1053,1.1886-.1581,1.7711,1.362.0236,1.7047-1.0548,2.4251-1.653.0967.0315.1846.0629.2813.0944a4.1433,4.1433,0,0,1-.5361,1.3618c-.7557.8659-1.643,1.6451-2.4515,2.48a5.8478,5.8478,0,0,0-.5975.8894,4.6386,4.6386,0,0,0,1.09.0473,37.4614,37.4614,0,0,0,10.5177-3.8255c.5361-.2992.993-.7085,1.52-1.0312a2.0982,2.0982,0,0,1,.65-.1653c.0264.2283.1494.4959.0527.6691a10.4151,10.4151,0,0,1-.826,1.1414c.0791.1023.167.2125.2549.3148,1.195-.5746,2.39-1.1492,3.5938-1.7239l.2108.189c-.29.4565-.58.9052-.9665,1.5113a8.7592,8.7592,0,0,1,1.6607-.37,3.8053,3.8053,0,0,1,1.1247.3778,3.4272,3.4272,0,0,1-.5536.9367,10.0468,10.0468,0,0,1-1.4674.9289,5.4407,5.4407,0,0,0,1.2214.2125,25.3014,25.3014,0,0,0,8.3211-1.9678l8.5407-1.4878c.0878.0079.1757.0079.2636.0237a3.48,3.48,0,0,1,1.7046.488c1.4323,1.165,3.1369,1.0154,4.8152.9367,4.6482-.2361,9.3052-.4093,13.9359-.7871a40.013,40.013,0,0,0,4.9732-.858,5.5352,5.5352,0,0,1-.8347,1.5113l42.7739-8.4775-.1174-1.3593a23.66,23.66,0,0,1,9.4237,4.5692,5.0722,5.0722,0,0,0,1.656.9622c-.4422-2.2227-2.287-3.6113-3.3228-5.4909,1.3073-.2591,3.0084.807,7.3429,4.6387a16.3381,16.3381,0,0,1,4.806,7.4686c1.22-1.6808.0427-3.08.106-4.6775,1.5532,1.9672,2.981,3.7712,4.4088,5.575.1193-.0136.2482-.0261.3689-.0494.3854-2.2608.7819-4.53,1.2137-7.0686,1.8111,1.57,2.2216,3.6615,3.3507,5.2791.111-.0245.2207-.04.3208-.0557-.1156-1.1317-.2421-2.2551-.4045-3.7751,2.0082,1.6354,3.7407,3.0582,5.4841,4.4726.1333-.12.2749-.2283.4082-.3478-.34-.6912-.6705-1.3811-1.0022-2.0614.0705-.0886.1422-.187.2126-.2756,1.973,1.68,3.9242,3.3761,6.5836,4.1568-.2081-.801-.3819-1.49-.6462-2.5336a8.2128,8.2128,0,0,1,1.5418.9375c1.6753,1.7091,3.3505,3.4182,4.9265,5.2122a4.7318,4.7318,0,0,1,.9351,4.4325,1.872,1.872,0,0,0-.0608.4622c.0008.0686.07.1365.188.3576a4.53,4.53,0,0,0,2.3833-2.9284,23.0216,23.0216,0,0,0,.9928-3.9733c.2-1.2959.1686-2.6223.2417-4.072,1.4691,1.5644,2.8373,3.0764,4.2625,4.5273a14.0013,14.0013,0,0,0,4.8141,3.6108c.1019-.1041.1928-.2.2946-.3041-.6818-.9222-1.3624-1.854-2.0333-2.7846.1018-.1042.2024-.1986.3139-.3015,2.1873,1.6883,4.1315,3.7364,6.7381,4.8432-.9771-2.0286-2.8616-3.4126-3.4118-5.7083,2.5211,3.172,5.3961,5.8126,9.2532,7.0937.0921-.1054.1734-.2024.2657-.3078-.3973-.4049-.7862-.7989-1.1848-1.1941-1.2613-1.2824-2.5649-2.5411-3.7717-3.8654-.2906-.3222-.2833-.8991-.4188-1.3577a4.0724,4.0724,0,0,1,1.302.0047,11.5457,11.5457,0,0,1,2.1194,1.0134,23.24,23.24,0,0,0,7.5017,2.9848,4.9084,4.9084,0,0,0,.6623.0283c-.5385-1.491-1.039-2.8987-1.55-4.2979.1693-.0953.3385-.1906.4969-.2775.6411.7112,1.2725,1.421,2.05,2.2873,1.0227-2.2651-1.007-3.7368-1.0479-5.8088,2.7016,1.1291,4.9516,3.0118,7.9934,2.7459-.6278-.5136-1.246-1.0259-1.8739-1.5394.0793-.156.1477-.3038.2257-.45,2.5712,1.3764,5.1189,2.8574,8.1318,2.96-2.0756-1.2721-4.3809-2.2119-5.9065-4.1658.055-.12.12-.239.1854-.3673a9.851,9.851,0,0,1,1.1571.4362c6.6223,3.1923,13.318,6.1984,20.505,7.9273a11.5,11.5,0,0,0,1.6238.1646c.0383-.1418.0861-.2825.1244-.4244-.6444-.3883-1.3-.7684-1.9317-1.1747-2.5408-1.6075-4.544-3.6536-5.0795-6.7308-.5289-2.9786,2.0558-4.46,4.4178-3.5033.13.0563.2972.0489.6792-.175-.4449-.49-.8911-.9694-1.3276-1.448.0343-.113.0675-.2164.102-.3293.583.1844,1.17.34,1.7394.5519.6081.2172,1.1977.5,2.107.8845-.2073-.7325-.32-1.1391-.4862-1.7389a12.0742,12.0742,0,0,1,4.729,1.2783c1.504.6288,2.9542,1.368,4.4314,2.0521.0787-.0778.1492-.1665.2292-.2539l-1.524-1.8165c.0742-.1176.1568-.2243.2407-.3406q3.5583,2.0988,7.1239,4.2182c.1051-.0548.1994-.1011.3046-.1559-.312-1.1282-.6432-2.2589-.9333-3.4038a7.5159,7.5159,0,0,1-.0984-1.1883,13.78,13.78,0,0,1,1.546.0858,2.9912,2.9912,0,0,1,.7612.394c.1089-.0837.2275-.166.3364-.25-.4908-.662-.9816-1.3241-1.6145-2.1712a9.2627,9.2627,0,0,1,6.0536,1.7071c-.3706-1.3515-.6664-2.38-1.0229-3.69,2.27.465,2.7924,2.3751,4.1763,3.6933a9.2456,9.2456,0,0,0,.1742-1.25c.0086-.9588.4418-1.274,1.358-1.0164,3.6513,1.0582,5.7553,3.5289,6.249,7.6683.0241.1892.0289.376.0434.5639.1142.0249.2176.0581.3319.083.2384-.9188.4671-1.8387.766-2.9943.6048.912,1.1035,1.6632,1.6272,2.4471.4439-.8427.3582-1.7551-.3462-3.1014-.5009-.9572-1.0647-1.8834-1.6782-2.9534,1.8514-.3735,2.41,1.7861,4.0909,1.8114-.2364-.5111-.4252-.9374-.784-1.7094a8.6769,8.6769,0,0,1,2.0766.3711,24.5645,24.5645,0,0,1,8.2743,6.27c1.2147,1.4134,2.266,2.9523,3.4507,4.5186.7256-.4531.6273-1.2692.4771-2.0627a16.8465,16.8465,0,0,0-2.8428-6.9068,8.5143,8.5143,0,0,1-.5281-1.0489c.1416-.1087.2833-.2173.4236-.3165a28.8509,28.8509,0,0,1,2.6166,3.1161,34.3053,34.3053,0,0,1,1.848,3.8963c1.22-1.4556.2864-3.1455.5394-4.8458a10.2783,10.2783,0,0,1,3.8417,4.9716c.6849,1.9412.9075,4.0469,1.594,6.1254.3751-1.2141.7516-2.4379,1.1931-3.8587.5587.5925.9367.9949,1.3147,1.3972.1027-.0355.2053-.071.3066-.0968a24.5673,24.5673,0,0,0-.94-5.9611c2,1.9184,2.7679,4.4974,3.7143,6.9823.1579-.0086.3061-.0185.4639-.0271.1095-.9063.2272-1.8017.3822-3.0545a30.4286,30.4286,0,0,1,5.8161,9.9912c.7727-1.0345,1.2855-1.731,2.0255-2.74a12.56,12.56,0,0,1,.5056,2.1135,15.416,15.416,0,0,1-2.86,9.9765c-2.0792,2.8509-4.06,5.7736-5.8586,8.7985a41.3078,41.3078,0,0,0-2.3476,5.6364c1.9528-.2524,2.23-2.88,4.343-2.9351a2.5129,2.5129,0,0,1-.283.7365c-1.511,1.5838-3.0053,3.19-4.5594,4.7285-2.0934,2.0654-5.4839,1.4824-7.6023.3124a4.3691,4.3691,0,0,0-1.12-.2746c.1008.4246.0641,1.076.3256,1.2476a21.9887,21.9887,0,0,0,4.7476,2.7009,18.0759,18.0759,0,0,0,8.1692.5162c.6678-.0884,1.1991-.1067,1.5726.6281.1166.2307.7252.37,1.0568.3054,1.4125-.3137,2.8146-.6973,4.2154-1.0713.6395-.1706,1.1809-.2659,1.6839.3781a1.2956,1.2956,0,0,0,1.0965.301,18.5409,18.5409,0,0,0,8.3089-3.9708,13.807,13.807,0,0,1,3.1249-1.94c-.5908,1.2152-1.18,2.4206-1.7435,3.6492-.04.0828.1031.2584.2513.6208a27.5037,27.5037,0,0,1,8.9518-6.55c-.8482,1.5339-2.6032,2.6645-1.9245,5.0261a17.5818,17.5818,0,0,1,1.7731-2.088,69.7,69.7,0,0,1,6.5938-5.3032,26.5867,26.5867,0,0,0,9.9781-12.194c.18-.3975.4061-.7791.6147-1.1728l.3946.0519c.0837,1.2255.1565,2.4594.24,3.6848.1432.0287.2877.0477.4308.0763a26.36,26.36,0,0,0,4.1568-14.9969c.134-.0509.2584-.1032.3924-.1541a5.1409,5.1409,0,0,1,.9785,1.0494,8.8636,8.8636,0,0,1,.387,6.8874,18.123,18.123,0,0,1-5.27,8.4939,20.07,20.07,0,0,0-1.4494,1.5625c.12.1333.2379.2762.3575.41,1.0061-.7982,2.0481-1.572,3.0194-2.4041,5.2944-4.5828,7.5589-10.7785,9.038-17.3323a52.4343,52.4343,0,0,0,.5538-19.9959,1.4994,1.4994,0,0,1-.0176-.4626,2.59,2.59,0,0,1,.2777-.4728,8.4745,8.4745,0,0,1,.7548.8143c1.7929,2.5276,1.67,5.4008,1.4765,8.2843-.137,2.0094-.2849,4.0272-.4328,6.045l.3352.1322a4.7466,4.7466,0,0,0,.69-.9278C459.2963,224.0653,461.2765,217.8714,460.4447,211.2388ZM29.3127,38.7268c-7.2052.8973-9.6215-4.6048-9.6215-4.6048a15.64,15.64,0,0,1,6.7306-2.11,3.465,3.465,0,0,0-1.028,2.44A3.9422,3.9422,0,0,0,29.5324,38.16a3.9421,3.9421,0,0,0,4.1385-3.7074,3.4837,3.4837,0,0,0-.9753-2.3929,7.5544,7.5544,0,0,1,2.6448.8508S35.4107,37.9632,29.3127,38.7268Zm31.7114-.5511c-6.0892-.7634-6.0277-5.8219-6.0277-5.8219s1.09-1.0426,5.8256-1.0419a3.52,3.52,0,0,0-1.16,2.5739,4.1685,4.1685,0,0,0,8.2859,0,3.4023,3.4023,0,0,0-.536-1.8261,7.0072,7.0072,0,0,1,3.2423,1.5113S68.2381,39.0731,61.0241,38.1757Z"/></svg>